<?xml version="1.0" encoding="utf-8"?>
<!-- Generator: Adobe Illustrator 27.5.0, SVG Export Plug-In . SVG Version: 6.00 Build 0)  -->
<svg version="1.1" xmlns="http://www.w3.org/2000/svg" xmlns:xlink="http://www.w3.org/1999/xlink" x="0px" y="0px"
	 viewBox="0 0 500 500" style="enable-background:new 0 0 500 500;" xml:space="preserve">
<g id="Background_Simple">
	<g>
		<g>
			<path style="fill:#92E3A9;" d="M291.771,48.166c-44.304-0.476-88.635,11.384-128.178,31.368s-74.046,51.473-93.149,91.449
				c-19.103,39.977-21.552,88.629-2.163,128.468c7.268,14.933,18.246,29.095,33.772,34.991c19.843,7.535,41.848,0.082,63.059-0.707
				c28.747-1.069,56.468,10.321,81.973,23.628c25.504,13.306,50.162,28.855,77.671,37.267c27.509,8.412,59.248,8.733,83.159-7.26
				c22.566-15.093,34.534-42.419,37.394-69.415c2.859-26.996-2.193-54.135-7.224-80.812
				C432.832,209.296,407.327,49.406,291.771,48.166z"/>
		</g>
		<g style="opacity:0.7;">
			<path style="fill:#FFFFFF;" d="M291.771,48.166c-44.304-0.476-88.635,11.384-128.178,31.368s-74.046,51.473-93.149,91.449
				c-19.103,39.977-21.552,88.629-2.163,128.468c7.268,14.933,18.246,29.095,33.772,34.991c19.843,7.535,41.848,0.082,63.059-0.707
				c28.747-1.069,56.468,10.321,81.973,23.628c25.504,13.306,50.162,28.855,77.671,37.267c27.509,8.412,59.248,8.733,83.159-7.26
				c22.566-15.093,34.534-42.419,37.394-69.415c2.859-26.996-2.193-54.135-7.224-80.812
				C432.832,209.296,407.327,49.406,291.771,48.166z"/>
		</g>
	</g>
</g>
<g id="Shadow">
	<g>
		<ellipse style="fill:#92E3A9;" cx="251.802" cy="436.782" rx="144" ry="13.782"/>
		<ellipse style="opacity:0.5;fill:#FFFFFF;" cx="251.802" cy="436.782" rx="144" ry="13.782"/>
	</g>
</g>
<g id="Plant">
	<g>
		<g>
			<g>
				<g>
					<path style="fill:#92E3A9;" d="M361.413,169.543c0.483,4.062-1.469,9.947-5.67,9.546c-0.686-0.064-1.333-0.279-1.974-0.516
						c0.417-3.042-1.394-6.394,0.098-9.034c0.815-1.455,2.871-4.171,4.474-4.408C360.491,164.811,361.125,167.306,361.413,169.543z"
						/>
					<path style="fill:#92E3A9;" d="M356.777,182.401c-1.396,3.04-3.314,5.453-7.831,5.326c-0.969-0.037-2.012-0.35-2.84-0.896
						c-0.831-0.55-1.484-1.38-1.604-2.363c-0.166-1.309,0.677-2.507,1.788-3.108c1.007-0.553,2.342-0.845,3.71-0.921
						c1.434-0.076,2.9,0.072,4.082,0.417C355.129,181.167,355.947,181.803,356.777,182.401z"/>
				</g>
				<path style="fill:none;stroke:#92E3A9;stroke-miterlimit:10;" d="M346.806,171.508c4.73,5.415,9.944,10.237,14.65,15.437"/>
			</g>
			<g>
				<g>
					<path style="fill:#92E3A9;" d="M376.493,186.123c0.167,2.193-0.495,4.73-1.711,6.519c-1.211,1.794-2.975,2.87-5.004,2.375
						c-0.665-0.162-1.261-0.47-1.878-0.768c0.395-1.464,0.217-3.107,0.105-4.699c-0.131-1.574-0.168-3.124,0.594-4.458
						c0.842-1.45,2.842-4.249,4.585-4.294C375.498,180.754,376.364,183.686,376.493,186.123z"/>
					<path style="fill:#92E3A9;" d="M370.294,198.425c-0.945,1.38-2.014,2.579-3.373,3.325c-1.353,0.746-3.012,1.049-5.179,0.761
						c-0.913-0.124-1.822-0.504-2.497-1.066c-0.697-0.549-1.144-1.295-1.095-2.208c0.065-1.21,1.022-2.316,2.15-2.85
						c1.024-0.487,2.331-0.7,3.665-0.672c1.394,0.027,2.837,0.31,3.921,0.819C368.855,196.977,369.561,197.719,370.294,198.425z"/>
				</g>
				<path style="fill:none;stroke:#92E3A9;stroke-miterlimit:10;" d="M361.456,186.945c2.389,2.574,4.58,5.302,6.721,8.068
					c2.065,2.822,4.068,5.694,5.857,8.705"/>
			</g>
			<g>
				<g>
					<path style="fill:#92E3A9;" d="M388.944,205.729c-0.614,4.38-4.4,9.204-8.266,7.494c-0.632-0.276-1.177-0.68-1.709-1.099
						c0.337-0.689,0.549-1.45,0.69-2.23c0.127-0.773,0.197-1.573,0.288-2.361c0.184-1.575,0.456-3.104,1.467-4.265
						c1.111-1.258,3.587-3.604,5.331-3.326C389,200.341,389.259,203.371,388.944,205.729z"/>
					<path style="fill:#92E3A9;" d="M380.593,216.674c-2.35,2.429-4.955,3.971-9.13,2.51c-1.791-0.594-3.406-2.222-3.002-4.009
						c0.261-1.183,1.404-2.085,2.622-2.395c1.103-0.281,2.457-0.252,3.766,0.034c1.356,0.305,2.688,0.874,3.696,1.561
						C379.424,214.991,380.033,215.827,380.593,216.674z"/>
				</g>
				<path style="fill:none;stroke:#92E3A9;stroke-miterlimit:10;" d="M374.034,203.719c3.633,5.989,6.707,12.32,9.43,18.802"/>
			</g>
			<g>
				<g>
					<path style="fill:#92E3A9;" d="M398.023,227.085c-0.628,2.258-2.173,4.388-3.981,5.587c-1.803,1.205-3.848,1.497-5.537,0.268
						c-0.567-0.4-1.006-0.907-1.457-1.411c0.932-1.214,1.35-2.8,1.755-4.379c0.39-1.596,0.836-3.002,1.994-4.017
						c1.264-1.084,4.082-3.036,5.739-2.544c1.102,0.343,1.598,1.191,1.779,2.359C398.582,224.378,398.36,225.842,398.023,227.085z"
						/>
					<path style="fill:#92E3A9;" d="M387.647,236.276c-2.836,1.825-5.755,2.59-9.443,0.469c-1.562-0.896-2.793-2.545-2.006-3.985
						c0.523-0.946,1.805-1.636,3.036-1.795c1.117-0.141,2.411,0.035,3.631,0.512c1.282,0.486,2.473,1.281,3.311,2.143
						C386.909,234.388,387.268,235.341,387.647,236.276z"/>
				</g>
				<path style="fill:none;stroke:#92E3A9;stroke-miterlimit:10;" d="M383.464,222.521l1.974,4.894
					c0.63,1.591,1.12,3.246,1.571,4.923c0.89,3.357,1.525,6.796,1.951,10.253"/>
			</g>
			<g>
				<g>
					<path style="fill:#92E3A9;" d="M401.556,251.033c-1.232,1.926-3.305,3.58-5.364,4.236c-2.082,0.667-4.1,0.376-5.407-1.27
						c-0.424-0.54-0.713-1.148-1.01-1.758c2.485-1.817,3.306-5.674,6.063-6.948c1.53-0.678,4.794-1.806,6.233-0.768
						C404.005,245.911,402.905,248.948,401.556,251.033z"/>
					<path style="fill:#92E3A9;" d="M389.044,256.961c-1.606,0.462-3.187,0.681-4.712,0.393c-1.521-0.283-3.003-1.073-4.491-2.546
						c-1.263-1.257-1.985-3.172-0.832-4.489c0.776-0.873,2.205-1.175,3.428-0.933c1.112,0.217,2.287,0.815,3.341,1.63
						c1.074,0.846,2.032,1.939,2.581,2.997C388.87,254.953,388.926,255.961,389.044,256.961z"/>
				</g>
				<path style="fill:none;stroke:#92E3A9;stroke-miterlimit:10;" d="M388.96,242.591c0.844,6.912,0.815,13.956-0.512,20.742"/>
			</g>
			<g>
				<g>
					<path style="fill:#92E3A9;" d="M397.199,275.959c-0.995,0.729-2.117,1.311-3.293,1.66c-1.189,0.348-2.383,0.475-3.464,0.361
						c-2.163-0.224-3.872-1.402-4.372-3.432c-0.153-0.661-0.185-1.334-0.222-2.007c1.499-0.335,2.801-1.343,4.111-2.31
						c1.281-0.974,2.579-1.91,4.095-2.063c1.67-0.137,5.143-0.194,6.132,1.355C401.546,271.601,399.303,274.378,397.199,275.959z"/>
					<path style="fill:#92E3A9;" d="M383.242,276.458c-1.619-0.29-3.134-0.848-4.364-1.781c-1.224-0.919-2.252-2.274-3.04-4.04
						c-0.706-1.548-0.73-3.235,0.754-3.867c1.003-0.407,2.444-0.155,3.501,0.489c0.962,0.584,1.848,1.525,2.536,2.644
						c0.671,1.138,1.165,2.502,1.224,3.659C383.944,274.608,383.579,275.531,383.242,276.458z"/>
				</g>
				<path style="fill:none;stroke:#92E3A9;stroke-miterlimit:10;" d="M388.448,263.334c-0.687,3.382-1.709,6.688-3.131,9.805
					c-1.435,3.109-3.308,6-5.562,8.552"/>
			</g>
			<g>
				<g>
					<path style="fill:#92E3A9;" d="M382.188,296.288c-2.041,0.289-4.588,0.002-6.531-0.937c-1.952-0.935-3.289-2.497-3.111-4.587
						c0.058-0.687,0.267-1.334,0.495-1.978c3.044,0.383,6.37-1.518,9.031-0.045c0.71,0.417,1.814,1.051,2.763,1.801
						c0.953,0.745,1.668,1.696,1.716,2.598C386.924,295.25,384.448,295.946,382.188,296.288z"/>
					<path style="fill:#92E3A9;" d="M369.244,291.789c-3.027-1.441-5.331-3.435-5.335-7.818c-0.008-1.85,1.087-4.051,3.074-4.341
						c1.311-0.186,2.523,0.634,3.143,1.735c0.566,0.999,0.878,2.327,0.983,3.687c0.11,1.425-0.011,2.886-0.343,4.064
						C370.47,290.157,369.84,290.966,369.244,291.789z"/>
				</g>
				<path style="fill:none;stroke:#92E3A9;stroke-miterlimit:10;" d="M379.754,281.691c-0.536,0.664-1.18,1.227-1.764,1.847
					l-1.914,1.86l-3.767,3.768c-1.247,1.249-2.493,2.486-3.771,3.673c-0.639,0.594-1.284,1.179-1.94,1.748
					c-0.651,0.558-1.324,1.126-2.012,1.748"/>
			</g>
			<g>
				<g>
					<path style="fill:#92E3A9;" d="M367.973,310.228c-0.904,0.108-1.913,0.152-2.977,0.089c-1.061-0.063-2.189-0.24-3.205-0.527
						c-2.012-0.564-3.798-1.725-3.995-3.806c-0.066-0.682,0.034-1.367,0.161-2.057c3.099-0.098,6.152-2.126,8.857-0.657
						c1.478,0.754,4.184,2.775,4.603,4.271c0.142,0.493,0.115,0.879-0.034,1.189c-0.134,0.327-0.393,0.576-0.738,0.77
						C369.94,309.869,368.948,310.09,367.973,310.228z"/>
					<path style="fill:#92E3A9;" d="M354.773,307.791c-1.679-0.271-3.224-0.608-4.494-1.528c-1.273-0.928-2.2-2.398-2.445-4.985
						c-0.214-2.17,0.993-5.167,3.162-5.902c1.405-0.509,2.732,0.229,3.397,1.295c0.603,0.965,1.012,2.355,1.215,3.755
						c0.196,1.459,0.275,3.012,0.126,4.277C355.576,305.806,355.184,306.815,354.773,307.791z"/>
				</g>
				<path style="fill:none;stroke:#92E3A9;stroke-miterlimit:10;" d="M364.586,296.334c-5.475,4.823-9.77,10.919-12.603,17.616"/>
			</g>
			<g>
				<g>
					<path style="fill:#92E3A9;" d="M360.994,325.09c-1.524,0.967-3.652,1.881-5.777,2.229c-2.113,0.336-4.151,0.058-5.237-1.746
						c-0.346-0.588-0.589-1.259-0.724-1.93c2.738-1.411,4.675-4.535,7.732-4.383c1.652,0.043,4.961,0.689,5.988,1.88
						C364.329,322.681,362.616,323.978,360.994,325.09z"/>
					<path style="fill:#92E3A9;" d="M348.018,328.497c-3.219,0.91-6.369,1.524-9.07-2.947c-0.527-0.944-0.859-2.212-0.863-3.46
						c0.044-1.234,0.424-2.44,1.216-3.231c1.104-1.04,2.574-0.944,3.646-0.262c0.975,0.619,1.874,1.684,2.687,2.874
						c0.827,1.242,1.497,2.603,1.936,3.819c0.185,0.537,0.26,1.069,0.313,1.604C347.954,327.43,347.98,327.966,348.018,328.497z"/>
				</g>
				<path style="fill:none;stroke:#92E3A9;stroke-miterlimit:10;" d="M351.983,313.95c-2.834,6.696-4.22,14.027-3.853,21.32"/>
			</g>
		</g>
		<g>
			<g>
				<g>
					<path style="fill:#92E3A9;" d="M432.954,281.988c-0.883,0.896-1.98,1.616-3.122,2.101c-1.124,0.498-2.318,0.743-3.416,0.739
						c-2.198-0.004-3.998-1.003-4.682-2.974c-0.244-0.654-0.341-1.322-0.422-1.98c1.42-0.505,2.644-1.654,3.804-2.815
						c1.149-1.159,2.308-2.324,3.778-2.757c1.625-0.425,5.049-1.183,6.271,0.327c0.83,1.02,0.755,2.395,0.268,3.752
						C434.9,279.72,433.96,281.03,432.954,281.988z"/>
					<path style="fill:#92E3A9;" d="M419.094,284.056c-1.663-0.129-3.194-0.5-4.524-1.309c-1.35-0.805-2.432-2.04-3.433-3.753
						c-0.784-1.467-1.115-3.087,0.308-3.75c0.908-0.448,2.366-0.373,3.503,0.116c1.023,0.441,2.08,1.244,2.847,2.249
						c0.85,1.052,1.411,2.325,1.635,3.491C419.584,282.117,419.368,283.103,419.094,284.056z"/>
				</g>
				<path style="fill:none;stroke:#92E3A9;stroke-miterlimit:10;" d="M422.523,270.456c0.031,6.833-2.446,13.572-6.337,19.274"/>
			</g>
			<g>
				<g>
					<path style="fill:#92E3A9;" d="M419.339,304.76c-2.334,0.575-4.991,0.26-6.903-0.762c-1.931-1.026-3.116-2.692-2.832-4.78
						c0.099-0.679,0.331-1.316,0.558-1.956c3.046,0.509,6.373-1.739,9.284-0.863c1.595,0.53,4.822,1.84,5.11,3.655
						C424.946,302.512,421.856,304.159,419.339,304.76z"/>
					<path style="fill:#92E3A9;" d="M406.25,300.028c-1.448-0.839-2.702-1.825-3.548-3.127c-0.846-1.296-1.291-2.92-1.272-5.002
						c-0.001-0.882,0.222-1.782,0.62-2.444c0.386-0.665,0.991-1.096,1.822-1.121c1.12-0.015,2.34,0.765,3.063,1.784
						c0.652,0.92,1.088,2.145,1.275,3.453c0.173,1.341,0.082,2.783-0.303,3.914C407.588,298.505,406.895,299.249,406.25,300.028z"/>
				</g>
				<path style="fill:none;stroke:#92E3A9;stroke-miterlimit:10;" d="M416.186,289.73c-1.924,2.878-4.237,5.496-6.749,7.889
					c-2.548,2.371-5.314,4.52-8.239,6.444"/>
			</g>
			<g>
				<g>
					<path style="fill:#92E3A9;" d="M399.275,319.085c-2.221-0.245-4.58-1.344-6.117-2.867c-1.543-1.525-2.276-3.445-1.409-5.362
						c0.281-0.634,0.691-1.178,1.111-1.712c2.764,1.365,6.57,0.378,8.95,2.294c1.286,1.065,3.743,3.483,3.451,5.245
						C404.858,319.035,401.694,319.387,399.275,319.085z"/>
					<path style="fill:#92E3A9;" d="M388.276,310.733c-2.4-2.353-3.888-5.013-2.425-9.148c0.626-1.743,2.145-3.372,3.902-2.941
						c1.159,0.275,2.071,1.414,2.395,2.623c0.294,1.095,0.284,2.44,0.002,3.739c-0.281,1.372-0.85,2.707-1.544,3.71
						C389.987,309.595,389.123,310.16,388.276,310.733z"/>
				</g>
				<path style="fill:none;stroke:#92E3A9;stroke-miterlimit:10;" d="M401.198,304.063c-5.856,3.85-12.265,6.868-18.84,9.467"/>
			</g>
			<g>
				<g>
					<path style="fill:#92E3A9;" d="M378.466,327.88c-1.937-0.595-4.001-1.927-5.405-3.548c-1.397-1.622-2.119-3.557-1.123-5.422
						c0.327-0.607,0.785-1.124,1.263-1.62c2.638,1.589,6.443,1.238,8.405,3.579c1.064,1.284,2.95,4.144,2.447,5.783
						C383.37,328.829,380.584,328.534,378.466,327.88z"/>
					<path style="fill:#92E3A9;" d="M368.433,318.659c-2.36-2.366-4.187-4.936-1.971-9.293c0.936-1.83,3.111-3.5,5.015-2.93
						c1.265,0.375,2.021,1.624,2.141,2.88c0.111,1.141-0.148,2.478-0.63,3.767c-0.502,1.349-1.244,2.648-2.045,3.614
						C370.234,317.553,369.315,318.078,368.433,318.659z"/>
				</g>
				<path style="fill:none;stroke:#92E3A9;stroke-miterlimit:10;" d="M382.358,313.53c-6.563,2.61-13.459,4.785-19.868,8.336"/>
			</g>
			<g>
				<g>
					<path style="fill:#92E3A9;" d="M363.018,336.054c-1.682-0.197-3.858-0.788-5.781-1.688c-1.881-0.9-3.521-2.235-3.396-4.353
						c0.031-0.701,0.273-1.345,0.527-2.011c1.553,0.23,3.134-0.032,4.672-0.036c1.527-0.019,2.974,0.189,4.118,1.16
						c1.285,1.055,3.488,3.617,3.579,5.16C366.889,336.318,364.869,336.222,363.018,336.054z"/>
					<path style="fill:#92E3A9;" d="M350.564,331.439c-1.635-0.431-3.188-0.874-4.35-1.923c-1.149-1.045-1.918-2.742-1.596-5.551
						c0.244-2.383,2.24-5.398,4.614-5.756c1.566-0.258,2.694,0.715,3.128,1.911c0.395,1.086,0.464,2.529,0.368,3.968
						c-0.092,1.531-0.363,3.064-0.721,4.337C351.674,329.531,351.08,330.467,350.564,331.439z"/>
				</g>
				<path style="fill:none;stroke:#92E3A9;stroke-miterlimit:10;" d="M362.49,321.866c-3.199,1.775-6.238,3.915-8.881,6.529
					c-2.635,2.606-4.88,5.733-6.198,9.309"/>
			</g>
		</g>
	</g>
	<g>
		<path style="fill:#FFFFFF;stroke:#263238;stroke-miterlimit:10;" d="M325.145,442.32c-0.339,0.077-11.854,0.077-12.193,0
			c-8.451-1.857-38.462-11.716-11.413-43.65h34.627C363.202,430.591,333.596,440.463,325.145,442.32z"/>
		<path style="fill:#FFFFFF;stroke:#263238;stroke-miterlimit:10;" d="M336.16,398.88c0,0.52-0.78,1.01-2.15,1.43
			c-2.96-0.93-8.68-1.55-15.26-1.55c-6.57,0-12.29,0.62-15.25,1.55c-1.37-0.42-2.15-0.91-2.15-1.43c0-1.64,7.79-2.97,17.4-2.97
			C328.37,395.91,336.16,397.24,336.16,398.88z"/>
		<path style="fill:#263238;stroke:#263238;stroke-miterlimit:10;" d="M334.01,400.31c-2.96,0.92-8.68,1.54-15.26,1.54
			c-6.57,0-12.29-0.62-15.25-1.54c2.96-0.93,8.68-1.55,15.25-1.55C325.33,398.76,331.05,399.38,334.01,400.31z"/>
		<path style="fill:#FFFFFF;stroke:#263238;stroke-miterlimit:10;" d="M332.087,407.915c1.215-0.248,2.413-0.527,3.586-0.836"/>
		<path style="fill:#FFFFFF;stroke:#263238;stroke-miterlimit:10;" d="M302.222,406.573c8.261,2.953,17.953,3.289,26.926,1.873"/>
	</g>
	<g>
		<g>
			<g>
				<path style="fill:#92E3A9;" d="M343.992,349.807c-3.948,0.328-9.426-2.143-9.251-6.013c0.028-0.636,0.201-1.221,0.384-1.802
					c2.855,0.671,5.861-0.914,8.57,0.394c1.473,0.74,4.407,2.505,4.703,4.159C348.774,348.781,346.147,349.627,343.992,349.807z"/>
				<path style="fill:#92E3A9;" d="M331.702,344.472c-2.903-1.56-5.243-3.562-5.289-7.818c-0.022-1.797,0.881-3.699,2.571-3.676
					c1.13,0.009,2.298,0.874,2.967,1.923c0.609,0.952,1.013,2.182,1.198,3.443c0.186,1.318,0.14,2.67-0.131,3.741
					C332.784,343.033,332.222,343.741,331.702,344.472z"/>
			</g>
			<path style="fill:none;stroke:#92E3A9;stroke-miterlimit:10;" d="M340.837,335.786c-3.987,4.524-8.644,8.513-13.112,12.812"/>
		</g>
		<g>
			<g>
				<path style="fill:#92E3A9;" d="M331.472,362.033c-1.716,0.068-3.962-0.317-5.909-1.126c-1.874-0.819-3.612-2.058-3.78-4.002
					c-0.06-0.631,0.025-1.254,0.163-1.851c2.905,0.287,5.768-1.269,8.397,0.198c1.438,0.79,4.181,2.773,4.591,4.281
					C335.463,361.527,333.37,361.937,331.472,362.033z"/>
				<path style="fill:#92E3A9;" d="M318.887,358.199c-1.626-0.42-3.148-0.862-4.375-1.825c-1.243-0.973-2.106-2.438-2.203-5.028
					c-0.1-2.134,0.943-4.56,2.91-4.939c1.293-0.24,2.514,0.55,3.198,1.608c0.625,0.963,1.026,2.233,1.256,3.538
					c0.244,1.374,0.29,2.766,0.158,3.911C319.691,356.442,319.277,357.35,318.887,358.199z"/>
			</g>
			<path style="fill:none;stroke:#92E3A9;stroke-miterlimit:10;" d="M327.724,348.598c-2.228,2.158-4.417,4.396-6.418,6.828
				c-0.992,1.202-1.953,2.524-2.8,3.883c-0.394,0.697-0.83,1.374-1.186,2.089l-1.036,2.157"/>
		</g>
		<g>
			<g>
				<path style="fill:#92E3A9;" d="M325.528,373.779c-1.467,0.806-3.651,1.526-5.757,1.722c-2.07,0.199-4.146-0.184-5.197-1.807
					c-0.344-0.532-0.54-1.118-0.714-1.717c1.339-0.55,2.522-1.486,3.657-2.266c1.191-0.765,2.416-1.338,3.886-1.211
					c1.615,0.11,4.924,0.902,5.961,1.949c0.715,0.712,0.669,1.303,0.218,1.829C327.149,372.82,326.358,373.348,325.528,373.779z"/>
				<path style="fill:#92E3A9;" d="M312.568,376.118c-3.245,0.586-6.383,0.835-8.962-3.059c-1.065-1.646-1.307-4.393,0.32-5.708
					c1.052-0.866,2.499-0.719,3.587-0.071c0.989,0.588,1.93,1.569,2.719,2.635c0.812,1.117,1.565,2.34,1.944,3.408
					C312.503,374.266,312.541,375.198,312.568,376.118z"/>
			</g>
			<path style="fill:none;stroke:#92E3A9;stroke-miterlimit:10;" d="M316.284,363.555c-1.27,2.923-2.16,5.972-2.809,9.052
				c-0.647,3.082-1.047,6.205-1.209,9.332"/>
		</g>
		<g>
			<g>
				<path style="fill:#92E3A9;" d="M324.229,389.122c-1.191,1.292-3.117,2.617-5.076,3.364c-1.975,0.74-4.031,0.876-5.504-0.414
					c-0.492-0.422-0.81-0.935-1.135-1.461c2.323-1.775,3.279-4.917,6.213-5.637c1.589-0.414,4.943-0.831,6.278-0.054
					C326.753,385.925,325.537,387.684,324.229,389.122z"/>
				<path style="fill:#92E3A9;" d="M312.318,394.917c-2.951,1.368-5.995,2.308-9.424-0.667c-1.471-1.253-2.359-3.668-1.22-5.242
					c0.78-1.048,2.212-1.32,3.434-1.033c1.116,0.259,2.265,0.897,3.349,1.67c1.131,0.81,2.103,1.78,2.782,2.694
					C311.841,393.147,312.052,394.041,312.318,394.917z"/>
			</g>
			<path style="fill:none;stroke:#92E3A9;stroke-miterlimit:10;" d="M312.265,381.94c-0.365,6.256,0.081,12.522,1.141,18.679"/>
		</g>
	</g>
	<g>
		<g>
			<g>
				<path style="fill:#92E3A9;" d="M349.745,380.844c-3.958,1.213-9.872-0.156-10.272-4.138c-0.069-0.655,0.018-1.285,0.117-1.914
					c2.982,0.072,5.769-2.197,8.707-1.47c1.604,0.429,4.847,1.575,5.404,3.199C354.431,378.708,351.9,380.221,349.745,380.844z"/>
				<path style="fill:#92E3A9;" d="M336.502,378.03c-3.162-0.994-5.814-2.557-6.514-6.847c-0.295-1.813,0.295-3.91,2.014-4.25
					c1.132-0.225,2.433,0.407,3.28,1.327c0.772,0.834,1.376,1.998,1.747,3.24c0.404,1.298,0.556,2.684,0.446,3.829
					C337.385,376.343,336.918,377.179,336.502,378.03z"/>
			</g>
			<path style="fill:none;stroke:#92E3A9;stroke-miterlimit:10;" d="M344.342,367.224c-3.23,5.505-7.355,10.555-11.276,15.798"/>
		</g>
		<g>
			<g>
				<path style="fill:#92E3A9;" d="M338.344,396.302c-1.81,0.435-4.142,0.427-6.211-0.115c-2.056-0.549-3.789-1.661-4.148-3.636
					c-0.115-0.644-0.086-1.298-0.007-1.933c2.988-0.124,5.719-2.27,8.581-1.267c1.558,0.54,4.608,2.031,5.188,3.534
					C342.512,394.875,340.301,395.815,338.344,396.302z"/>
				<path style="fill:#92E3A9;" d="M325.145,394.202c-3.26-0.602-6.255-1.547-7.165-6.218c-0.178-0.968-0.087-2.098,0.287-3.079
					c0.38-0.957,1.043-1.744,1.979-2.064c1.247-0.402,2.572,0.216,3.389,1.17c0.743,0.865,1.304,2.085,1.688,3.379
					c0.396,1.345,0.589,2.761,0.561,3.95C325.842,392.377,325.467,393.282,325.145,394.202z"/>
			</g>
			<path style="fill:none;stroke:#92E3A9;stroke-miterlimit:10;" d="M333.066,383.022c-3.929,5.234-7.753,10.698-10.528,16.797"/>
		</g>
	</g>
	<path style="fill:#92E3A9;" d="M417.931,268.516c-0.443-2.34,0.136-5.336,1.281-6.787c0.148-0.187,2.362-2.879,3.104-2.808
		c0.493,0.047,2.907,1.779,3.793,3.885c0.491,1.167,1.478,3.043,1.133,5.757c-0.236,1.858-2.082,5.408-4.58,5.561
		C420.041,274.285,418.257,270.233,417.931,268.516z"/>
</g>
<g id="Note">
	<g>
		<g>
			<rect x="164.951" y="89.614" style="fill:#FFFFFF;" width="192" height="255.208"/>
			<path style="fill:#263238;" d="M356.95,345.322H164.951c-0.276,0-0.5-0.224-0.5-0.5V89.614c0-0.276,0.224-0.5,0.5-0.5H356.95
				c0.276,0,0.5,0.224,0.5,0.5v255.208C357.45,345.099,357.227,345.322,356.95,345.322z M165.451,344.322H356.45V90.114H165.451
				V344.322z"/>
		</g>
		<rect x="185.98" y="221.109" style="fill:#263238;" width="146.139" height="6"/>
		<rect x="213.069" y="145.544" style="fill:#263238;" width="119.05" height="6"/>
		<rect x="185.98" y="183.327" style="fill:#263238;" width="146.139" height="6"/>
		<g>
			<path style="fill:#263238;" d="M294.57,296.67c-1.86,2.03-3.76,4.03-5.7,6H185.98v-6H294.57z"/>
		</g>
		<g>
			<path style="fill:#263238;" d="M323.28,258.89c-1.28,1.99-2.59,3.99-3.95,6H185.98v-6H323.28z"/>
		</g>
		<path style="fill:none;stroke:#263238;stroke-linecap:round;stroke-linejoin:round;stroke-miterlimit:10;" d="M237.66,337.93
			c0,0-8.54,4.15-32.46,6.39l-39.749,0.002"/>
		<path style="fill:#263238;" d="M352.792,198.98L352.792,198.98c1.479-2.219,2.369-4.773,2.601-7.429
			c0.292-3.345,0.513-7.232,0.582-9.601l0.381-13.088v28.158L352.792,198.98z"/>
		<path style="fill:#FFFFFF;stroke:#263238;stroke-linecap:round;stroke-linejoin:round;stroke-miterlimit:10;" d="M355.24,195.84
			c0,1.22-11.18,30.7-31.96,63.05c-1.28,1.99-2.59,3.99-3.95,6c-7.23,10.76-15.51,21.65-24.76,31.78c-1.86,2.03-3.76,4.03-5.7,6
			c-14.65,14.86-31.53,27.51-50.44,34.76c1.08-0.55,17.55-8.86,21.14-34.76c0.27-1.9,0.46-3.9,0.57-6
			c0.48-8.76-0.46-19.26-3.64-31.78c-0.49-1.95-1.04-3.95-1.65-6c-4.62-15.61-12.56-34.11-25.21-55.99l-3.26-7.1l21.3,5.98
			c95.13,22.09,107.55-5.98,107.55-5.98C355.23,195.81,355.24,195.82,355.24,195.84z"/>
		<path style="fill:#FFFFFF;stroke:#263238;stroke-linecap:round;stroke-linejoin:round;stroke-miterlimit:10;" d="M273.39,284.829
			c0.085,3.541-0.122,5.311-0.122,5.311"/>
		<path style="fill:#FFFFFF;stroke:#263238;stroke-linecap:round;stroke-linejoin:round;stroke-miterlimit:10;" d="M250.507,216.744
			c13.818,17.898,20.789,48.146,22.611,62.498"/>
		<g>
			<g>
				<g>
					<path style="fill:#263238;" d="M188.119,117.431c-5.544,0-10.054-4.511-10.054-10.055c0-5.544,4.51-10.054,10.054-10.054
						c0.829,0,1.5,0.671,1.5,1.5s-0.671,1.5-1.5,1.5c-3.89,0-7.054,3.164-7.054,7.054c0,3.89,3.165,7.055,7.054,7.055
						c3.89,0,7.055-3.165,7.055-7.055c0-0.829,0.671-1.5,1.5-1.5c0.829,0,1.5,0.671,1.5,1.5
						C198.173,112.92,193.663,117.431,188.119,117.431z"/>
				</g>
				<g>
					<path style="fill:#BFBFBF;stroke:#263238;stroke-linecap:round;stroke-linejoin:round;stroke-miterlimit:10;" d="
						M187.88,113.275c-9.19,0-9.692-19.853-9.7-23.832v-0.128c0-4.001,0.468-23.96,9.7-23.96c9.206,0,9.873,21.548,9.919,24.005
						L189.8,89.51c-0.113-6.081-1.049-10.803-1.982-13.67c-0.843,2.776-1.638,7.372-1.638,13.475v0.12
						c0.011,6.181,0.839,10.805,1.697,13.542c0.093-0.291,0.188-0.611,0.284-0.963l0.633-2.174l5.576,1.626
						c1.163,0.339,1.83,1.556,1.491,2.719l0,0C194.225,110.194,191.533,113.275,187.88,113.275z"/>
				</g>
				<g>
					<path style="fill:#263238;" d="M196.673,108.876c-0.829,0-1.5-0.671-1.5-1.5c0-3.89-3.165-7.054-7.055-7.054
						c-0.829,0-1.5-0.671-1.5-1.5s0.671-1.5,1.5-1.5c5.544,0,10.055,4.51,10.055,10.054
						C198.173,108.205,197.502,108.876,196.673,108.876z"/>
				</g>
			</g>
			<g>
				<g>
					<path style="fill:#263238;" d="M235.525,117.431c-5.544,0-10.055-4.511-10.055-10.055c0-5.544,4.511-10.054,10.055-10.054
						c0.829,0,1.5,0.671,1.5,1.5s-0.671,1.5-1.5,1.5c-3.89,0-7.055,3.164-7.055,7.054c0,3.89,3.165,7.055,7.055,7.055
						c3.89,0,7.054-3.165,7.054-7.055c0-0.829,0.671-1.5,1.5-1.5c0.829,0,1.5,0.671,1.5,1.5
						C245.579,112.92,241.069,117.431,235.525,117.431z"/>
				</g>
				<g>
					<path style="fill:#BFBFBF;stroke:#263238;stroke-linecap:round;stroke-linejoin:round;stroke-miterlimit:10;" d="
						M235.286,113.275c-9.19,0-9.692-19.853-9.7-23.832v-0.128c0-4.001,0.468-23.96,9.7-23.96c9.206,0,9.874,21.548,9.919,24.005
						l-7.999,0.149c-0.113-6.081-1.049-10.803-1.982-13.67c-0.843,2.776-1.638,7.372-1.638,13.475v0.12
						c0.011,6.181,0.839,10.805,1.697,13.542c0.093-0.291,0.188-0.611,0.284-0.963l0.633-2.174l5.576,1.626
						c1.162,0.339,1.83,1.556,1.491,2.719l0,0C241.63,110.194,238.939,113.275,235.286,113.275z"/>
				</g>
				<g>
					<path style="fill:#263238;" d="M244.079,108.876c-0.829,0-1.5-0.671-1.5-1.5c0-3.89-3.164-7.054-7.054-7.054
						c-0.829,0-1.5-0.671-1.5-1.5s0.671-1.5,1.5-1.5c5.544,0,10.054,4.51,10.054,10.054
						C245.579,108.205,244.908,108.876,244.079,108.876z"/>
				</g>
			</g>
			<g>
				<g>
					<path style="fill:#263238;" d="M282.931,117.431c-5.544,0-10.055-4.511-10.055-10.055c0-5.544,4.511-10.054,10.055-10.054
						c0.828,0,1.5,0.671,1.5,1.5s-0.672,1.5-1.5,1.5c-3.89,0-7.055,3.164-7.055,7.054c0,3.89,3.165,7.055,7.055,7.055
						c3.89,0,7.055-3.165,7.055-7.055c0-0.829,0.672-1.5,1.5-1.5c0.828,0,1.5,0.671,1.5,1.5
						C292.985,112.92,288.475,117.431,282.931,117.431z"/>
				</g>
				<g>
					<path style="fill:#BFBFBF;stroke:#263238;stroke-linecap:round;stroke-linejoin:round;stroke-miterlimit:10;" d="
						M282.692,113.275c-9.191,0-9.692-19.853-9.7-23.832v-0.128c0-4.001,0.468-23.96,9.7-23.96c9.206,0,9.874,21.548,9.919,24.005
						l-7.999,0.149c-0.113-6.081-1.049-10.803-1.982-13.67c-0.843,2.776-1.638,7.372-1.638,13.475v0.12
						c0.011,6.181,0.839,10.805,1.697,13.542c0.093-0.291,0.188-0.611,0.284-0.963l0.633-2.174l5.576,1.626
						c1.163,0.339,1.83,1.556,1.491,2.719l0,0C289.036,110.194,286.345,113.275,282.692,113.275z"/>
				</g>
				<g>
					<path style="fill:#263238;" d="M291.485,108.876c-0.828,0-1.5-0.671-1.5-1.5c0-3.89-3.165-7.054-7.055-7.054
						c-0.828,0-1.5-0.671-1.5-1.5s0.672-1.5,1.5-1.5c5.544,0,10.055,4.51,10.055,10.054
						C292.985,108.205,292.314,108.876,291.485,108.876z"/>
				</g>
			</g>
			<g>
				<g>
					<path style="fill:#263238;" d="M330.337,117.431c-5.544,0-10.055-4.511-10.055-10.055c0-5.544,4.511-10.054,10.055-10.054
						c0.828,0,1.5,0.671,1.5,1.5s-0.672,1.5-1.5,1.5c-3.89,0-7.055,3.164-7.055,7.054c0,3.89,3.165,7.055,7.055,7.055
						c3.89,0,7.054-3.165,7.054-7.055c0-0.829,0.672-1.5,1.5-1.5c0.828,0,1.5,0.671,1.5,1.5
						C340.391,112.92,335.881,117.431,330.337,117.431z"/>
				</g>
				<g>
					<path style="fill:#BFBFBF;stroke:#263238;stroke-linecap:round;stroke-linejoin:round;stroke-miterlimit:10;" d="
						M330.098,113.275c-9.19,0-9.692-19.853-9.7-23.832v-0.128c0-4.001,0.468-23.96,9.7-23.96c9.206,0,9.874,21.548,9.919,24.005
						l-7.999,0.149c-0.113-6.081-1.049-10.803-1.982-13.67c-0.843,2.776-1.638,7.372-1.638,13.475v0.12
						c0.011,6.181,0.839,10.805,1.697,13.542c0.093-0.291,0.188-0.611,0.284-0.963l0.633-2.174l5.576,1.626
						c1.163,0.339,1.83,1.556,1.491,2.719l0,0C336.442,110.194,333.751,113.275,330.098,113.275z"/>
				</g>
				<g>
					<path style="fill:#263238;" d="M338.891,108.876c-0.828,0-1.5-0.671-1.5-1.5c0-3.89-3.164-7.054-7.054-7.054
						c-0.828,0-1.5-0.671-1.5-1.5s0.672-1.5,1.5-1.5c5.544,0,10.054,4.51,10.054,10.054
						C340.391,108.205,339.719,108.876,338.891,108.876z"/>
				</g>
			</g>
		</g>
	</g>
</g>
<g id="Graphic">
	<g>
		<g>
			
				<ellipse transform="matrix(0.2241 -0.9746 0.9746 0.2241 -56.6329 595.9325)" style="fill:#92E3A9;stroke:#263238;stroke-miterlimit:10;" cx="345.96" cy="333.535" rx="37.535" ry="37.535"/>
		</g>
		<path style="fill:#FFFFFF;" d="M367.85,333.53c0,1.94-1.56,3.5-3.5,3.5h-14.89v14.9c0,1.93-1.57,3.5-3.5,3.5
			c-1.93,0-3.5-1.57-3.5-3.5v-14.9h-14.89c-1.93,0-3.5-1.56-3.5-3.5c0-1.93,1.57-3.5,3.5-3.5h14.89v-14.89c0-1.93,1.57-3.5,3.5-3.5
			c1.93,0,3.5,1.57,3.5,3.5v14.89h14.89C366.29,330.03,367.85,331.6,367.85,333.53z"/>
	</g>
</g>
<g id="Character">
	<g>
		<path style="fill:#FFFFFF;stroke:#263238;stroke-linecap:round;stroke-linejoin:round;stroke-miterlimit:10;" d="M166.02,210.802
			c0,0,3.079,17.697,2.49,19.898s-2.965,3.864-2.965,3.864l6.891,16.396v-12.832c0,0,1.901-29.703,2.139-43.01
			c0.187-10.478-0.772-19.783-0.772-19.783l-3.267,0.535C170.535,175.871,166.733,203.673,166.02,210.802z"/>
		<g>
			<g>
				<path style="fill:#FFFFFF;stroke:#263238;stroke-linecap:round;stroke-linejoin:round;stroke-miterlimit:10;" d="
					M151.583,425.924l-1.92-14.127l-12.755-1.021l1.488,15.432C138.396,426.208,144.562,431.581,151.583,425.924z"/>
				<g>
					<path style="fill:#263238;" d="M137.571,424.437c-0.423,3.488-0.832,7.142,0.173,10.469c1.005,3.327,3.924,6.139,6.807,5.326
						c0.664-0.187,1.289-0.552,1.965-0.669c1.278-0.222,2.533,0.458,3.73,1.048c7.281,3.586,26.27,2.05,27.76,1.256
						c0.199-0.106,0.396-0.265,0.589-0.467c1.404-1.469,0.893-3.524-0.943-4.393c-8.712-4.124-8.153-3.087-22.533-11.234
						c-2.581-1.462-4.113-0.767-5.411,0.576C146.164,430.015,139.995,428.922,137.571,424.437L137.571,424.437z"/>
				</g>
			</g>
			<path style="fill:#263238;" d="M150.737,394.04c-6.51,8.09-14.658,18.445-14.658,18.445l-5.881-12.653
				c0,0,13.663-16.217,20.673-33.327c0.01,3.35,0.267,7.039,0.356,9.089C151.468,381.874,150.837,387.71,150.737,394.04z"/>
			<g>
				<g>
					<path style="fill:#263238;" d="M136.92,428.27c-0.09,0.53-0.2,1.09-0.6,1.44c-1.12,1-2.36-0.81-3.3-1.99
						c-2.83-3.59-5.43-7.95-7.79-12.11l-0.73-6.51l-2.14,0.89l-0.27,0.02c-0.21-0.37-0.42-0.73-0.62-1.09
						c-4.74-8.28,0.92-9.89,6.95-9.62c0.69,0.03,2.13,0.18,4.45,4.63c1.22,2.35,1.09,1.75,1.67,3.19
						C137.22,413.79,138.05,421.18,136.92,428.27z"/>
				</g>
				<g>
					<g>
						<g>
							<path style="fill:#263238;" d="M174.15,257.87c-0.24-1.63-0.2-6.36-0.1-10.79c0.14-5.68-2.4-11.1-6.84-14.65
								c0,0-5.24,7.05-20.21,7.05c-0.25,0-0.5-0.01-0.75-0.01c-6.7-0.16-13.31-1.27-19.64-3.26c-2.7-0.86-5.34-1.87-7.92-3.04
								c0,0,0.3,19.95,0.93,38.59c0.54,14.75,4.34,81.022,6.74,102.08c2.001,17.56,7.937,34.903,8.65,42.388
								c0.337,3.537,8.308,2.431,12.119,1.069c4.99-1.782,5.346-2.852,5.346-2.852c0.33-5.44-1.115-14.975-1.025-20.405
								c13.64-16.96,34.86-43.9,35.46-48.05C191.57,313.75,174.65,261.21,174.15,257.87z M161.1,340.83
								c-0.35,2.18-4.88,13.6-10,26.07c-0.016-5.517,2.445-11.266,3.157-20.177c1.372-17.147-2.109-35.98-1.617-49.773
								C155.41,308.83,161.74,336.78,161.1,340.83z"/>
						</g>
					</g>
				</g>
				<g>
					<path style="fill:none;stroke:#BFBFBF;stroke-linecap:round;stroke-linejoin:round;stroke-miterlimit:10;" d="M182.512,351.061
						c-2.179,1.849-4.743,3.246-7.486,4.048"/>
					<path style="fill:none;stroke:#BFBFBF;stroke-linecap:round;stroke-linejoin:round;stroke-miterlimit:10;" d="M185.571,347.829
						c-0.43,0.57-0.891,1.116-1.379,1.636"/>
					<path style="fill:none;stroke:#BFBFBF;stroke-linecap:round;stroke-linejoin:round;stroke-miterlimit:10;" d="M155.727,245.516
						c1.377,7.291,1.591,17.14-1.401,23.929c-0.478,1.083-2.645,3.15-2.645,3.15"/>
					<path style="fill:none;stroke:#BFBFBF;stroke-linecap:round;stroke-linejoin:round;stroke-miterlimit:10;" d="M132.106,244.741
						c-0.809,3.503-2.266,9.271-4.168,12.321c-1.903,3.05-4.819,5.617-8.327,6.4"/>
					<path style="fill:none;stroke:#BFBFBF;stroke-linecap:round;stroke-linejoin:round;stroke-miterlimit:10;" d="M150.569,252.116
						c1.053,11.829,1.01,23.296,2.126,43.16"/>
					<path style="fill:none;stroke:#FFFFFF;stroke-linecap:round;stroke-linejoin:round;stroke-miterlimit:10;" d="M149.928,246.025
						c0.114,0.937,0.22,1.863,0.318,2.782"/>
					<path style="fill:none;stroke:#BFBFBF;stroke-linecap:round;stroke-linejoin:round;stroke-miterlimit:10;" d="M161.155,337.635
						c0.674,4.863,2.054,9.628,4.082,14.099"/>
					<path style="fill:none;stroke:#BFBFBF;stroke-linecap:round;stroke-linejoin:round;stroke-miterlimit:10;" d="M162.015,342.224
						c-0.891,6.927-0.5,14.007,1.112,20.807"/>
					<g>
						<path style="fill:none;stroke:#BFBFBF;stroke-linecap:round;stroke-linejoin:round;stroke-miterlimit:10;" d="
							M122.694,262.257c1.824,27.262,4.363,48.006,6.397,68.699"/>
						<path style="fill:none;stroke:#BFBFBF;stroke-linecap:round;stroke-linejoin:round;stroke-miterlimit:10;" d="
							M129.161,338.155c0.019-0.86,0.027-1.724,0.026-2.593"/>
						<path style="fill:none;stroke:#BFBFBF;stroke-linecap:round;stroke-linejoin:round;stroke-miterlimit:10;" d="
							M140.864,418.125c-1.414-4.371-11.158-38.04-11.618-51.956c-0.306-9.244-0.676-15.836-0.205-24.78"/>
					</g>
					
						<line style="fill:none;stroke:#BFBFBF;stroke-linecap:round;stroke-linejoin:round;stroke-miterlimit:10;" x1="151.912" y1="363.79" x2="151.558" y2="393.901"/>
				</g>
			</g>
		</g>
		<g>
			<g>
				<g>
					<defs>
						<path id="XMLID_2_" d="M171.723,156.624c-2.338-11.95-10.313-13.564-12.123-14.134c-12.47-3.93-21.02-4.59-30.86-0.27
							c-11.55,5.08-13.87,5.26-17.43,18.44c-1.95,7.21,1.93,31.49,4.27,42.06c1.87,8.41,1.4,30.2,4.99,33.69
							c6.68,6.47,16.15,5.54,25.31,3.92c7.93-1.41,21.169-3.286,24.179-10.756c0.435-1.076,0.395-5.596,0.238-12.119
							c-0.475-19.723,0.845-31.045,0.643-43.675l2.684-1.235C173.624,172.545,173.861,167.554,171.723,156.624z"/>
					</defs>
					<use xlink:href="#XMLID_2_"  style="overflow:visible;fill:#92E3A9;"/>
					<clipPath id="XMLID_00000138547321403203188830000011534520689306307495_">
						<use xlink:href="#XMLID_2_"  style="overflow:visible;"/>
					</clipPath>
					<path style="opacity:0.2;clip-path:url(#XMLID_00000138547321403203188830000011534520689306307495_);" d="M114.003,182.277
						c0.351,4.078-1.045,8.46,0.764,12.132c1.006,2.041,3.174,3.633,5.437,3.396c1.419-0.149,2.755-0.974,4.174-0.831
						c1.824,0.184,3.076,1.853,4.137,3.347c2.376,3.345,5.021,6.596,8.455,8.841c3.434,2.245,7.788,3.378,11.715,2.193
						c-1.082,1.942-3.518,4.912-3.499,4.833c2.18-0.811,6.992-4.315,11.227-4.341c4.488-0.028,8.976-0.055,13.464-0.083
						c0.871-2.824-1.151-5.911-3.827-7.165c-2.676-1.254-5.784-1.092-8.711-0.688c-2.927,0.404-5.886,1.025-8.81,0.602
						c-3.902-0.564-7.35-2.964-9.943-5.934s-4.443-6.5-6.268-9.995c-0.726,1.376-2.749,1.547-4.111,0.795
						c-1.362-0.752-2.239-2.126-3.139-3.394c-2.67-3.764-7.782-10.049-12.486-11.069
						C111.803,176.93,113.812,180.058,114.003,182.277z"/>
					<path style="opacity:0.2;clip-path:url(#XMLID_00000138547321403203188830000011534520689306307495_);" d="M155.413,202.307
						c5.218-2.037,8.722-7.176,10.223-12.572c0.907-3.261,2.934-12.218,0.677-15.048c-1.688,4.689-2.861,9.55-4.695,14.213
						c-0.935,2.378-1.942,4.727-3.02,7.043C158.084,197.046,156.506,201.88,155.413,202.307z"/>
					<path style="opacity:0.2;clip-path:url(#XMLID_00000138547321403203188830000011534520689306307495_);" d="M117.696,217.532
						c3.353,8.07,11.069,13.796,19.452,16.263c8.383,2.468,18.145,2.387,26.733,0.769c-11.072,6.266-25.749,6.88-37.597,2.247
						c-2.134-0.834-4.252,0.124-5.823-1.543c-3.597-3.815-3.437-11.717-3.054-16.946c-0.667,0.028-1.335,0.055-2.002,0.083"/>
					<path style="opacity:0.2;clip-path:url(#XMLID_00000138547321403203188830000011534520689306307495_);" d="M139.727,154.4
						c0.442,0.518,0.934,1.066,1.602,1.202c0.765,0.156,1.542-0.296,2.043-0.896c0.5-0.6,0.798-1.338,1.179-2.02
						c0.942-1.682,2.444-3.044,4.208-3.818c0.944,2.299,2.385,4.391,4.197,6.091c0.208-0.01,0.416-0.019,0.624-0.028
						c0.967-2.314,1.244-4.911,0.786-7.376c-0.16,0.638-0.616,1.195-1.209,1.48c-0.52-0.985-1.051-1.987-1.84-2.773
						c-0.789-0.786-1.89-1.338-2.995-1.203c-0.474,0.058-0.926,0.238-1.355,0.448c-2.774,1.356-4.742,3.954-6.203,6.673
						c0.076-0.142-5.756-3.891-6.454-4.185C135.992,150.21,137.919,152.282,139.727,154.4z"/>
					<use xlink:href="#XMLID_2_"  style="overflow:visible;fill:none;stroke:#263238;stroke-miterlimit:10;"/>
				</g>
				<g id="freepik--character-2--inject-97_2_">
					<g>
						<path style="fill:#FFFFFF;" d="M151.237,139.833c1.713-0.04,5.439-0.805,6.881-4.813c1.442-4.008,2.115-16.744,2.117-19.059
							c0.001-2.315-1.834-7.001-2.209-9.659c-0.375-2.658-1.966-8.197-1.966-8.197l-4.848-4.688l-6.668,2.821l-9.446,1.247
							c0,0-1.764,15.313-4.166,12.853c-2.402-2.46-9.691,0.702-9.241,6.506c0.45,5.804,7.871,5.72,7.871,5.72
							s1.837,1.807,2.941,7.832c0.682,3.751,0.706,7.593,0.07,11.352c2.407,2.968,6.173,4.486,9.965,4.016
							c6.391-0.815,7.014-5.156,7.014-5.156S149.624,139.871,151.237,139.833z"/>
						<path style="fill:none;stroke:#263238;stroke-linecap:round;stroke-linejoin:round;" d="M129.635,114.091
							c-1.416-1.95-6.52-5.243-7.754,1.534c-1.234,6.777,5.534,6.35,9.077,7.194c2.666,4.432,8,11.867,12.506,14.196
							c2.79,1.453,6.278,3.138,9.567,2.753c3.29-0.385,4.598-2.345,5.242-5.457c0.885-4.175,1.461-8.409,1.725-12.669
							c0.157-2.713,0.635-6.346-0.47-8.916c-1.581-3.711-1.235-7.964-2.451-11.786c-1.216-3.822-4.492-6.571-7.525-8.965"/>
						<path style="fill:#263238;" d="M141.83,111.607c2.083-1.283,3.889-1.847,5.637,0.004c0.493-0.017,1.621-1.967,1.621-1.967
							s-1.323-1.971-4.374-1.258C141.663,109.099,141.83,111.607,141.83,111.607z"/>
						<path style="fill:none;stroke:#263238;stroke-linecap:round;stroke-linejoin:round;" d="M146.461,126.662
							c1.427,2.061,2.944,2.693,5.625,2.462"/>
						<path style="fill:#263238;" d="M145.428,114.766c0.465-0.044,0.908,0.698,0.996,1.64c0.088,0.942-0.234,1.75-0.699,1.783
							c-0.465,0.033-0.919-0.698-0.996-1.64C144.641,115.607,144.963,114.81,145.428,114.766z"/>
						<path style="fill:#263238;" d="M155.574,113.433c0.476-0.044,0.93,0.676,1.007,1.629c0.077,0.952-0.223,1.761-0.699,1.794
							c-0.476,0.033-0.919-0.698-1.007-1.64C154.798,114.274,155.098,113.477,155.574,113.433z"/>
						<g>
							<path style="fill:#263238;" d="M154.446,110.508c0.031-0.04,2.307-1.119,3.223-0.308c0,0,0.665-2.289-1.077-2.824
								c-1.741-0.535-2.401,0.854-2.401,0.854l0.066,2.472L154.446,110.508z"/>
						</g>
						<path style="fill:none;stroke:#263238;stroke-linecap:round;stroke-linejoin:round;" d="M149.683,139.634
							c0.059,0.007-0.43,3.807-1.96,4.871c-1.528,1.034-1.96,1.331-3.802,1.426c-3.234,0.275-9.621-1.412-11.314-4.182
							c0.624-2.733,0.723-5.559,0.294-8.328c-0.291-3.589-0.942-7.141-1.942-10.6C130.958,122.82,139.287,138.386,149.683,139.634z"
							/>
						<g>
							<g>
								<path style="fill:#FFFFFF;stroke:#263238;stroke-linecap:round;stroke-linejoin:round;stroke-miterlimit:10;" d="
									M133.343,138.88c-2.205,0.521-3.976,0.641-4.481,2.151c-0.323,0.967,0.412,1.882,1.19,2.706
									c2.986,3.165,6.773,6.062,11.077,8.449c2.292-3.352,4.123-5.115,6.546-7.144c-4.7-0.915-9.437-2.876-13.247-5.554
									L133.343,138.88z"/>
							</g>
							<g>
								<path style="fill:#FFFFFF;stroke:#263238;stroke-linecap:round;stroke-linejoin:round;stroke-miterlimit:10;" d="
									M149.743,139.931c2.02,0.297,2.373,0.744,3.263,1.749c0.948,1.07,1.701,5.457,0.739,8.251
									c-2.137-2.482-3.453-6.23-6.547-5.26C149.624,143.911,149.743,139.931,149.743,139.931z"/>
							</g>
						</g>
						<path style="fill:#263238;" d="M133.005,125.999c0,0,4.066,14.943,8.672,16.364c2.768,0.778,5.735-0.134,7.588-2.332
							C140.75,137.246,133.005,125.999,133.005,125.999z"/>
					</g>
					<path style="fill:#263238;" d="M136.852,108.802c-2.811,1.713-4.753,6.832-2.733,9.505c1.984,2.626-0.059,4.277-0.981,5.181
						c-0.088-0.072-1.284-2.697-1.871-4.409c-0.609-1.778-0.548-3.337-1.545-4.931c-0.55-0.88-3.097-2.284-4.099-2.554
						c-1.49-0.403-3.019,1.209-3.487,2.679c-0.468,1.471-0.163,3.062,0.145,4.574c-1.953-2.149-2.165-2.752-2.36-5.649
						c-0.107-1.581,0.075-3.186-0.223-4.743c-0.314-1.639-1.149-3.155-1.366-4.81c-0.381-2.905,1.172-5.675,2.669-8.194
						c1.44-2.423,2.919-4.893,5.067-6.719c1.839-1.564,4.08-2.575,6.339-3.426c5.124-1.93,10.665-3.146,16.078-2.323
						c5.413,0.823,10.676,3.955,13.034,8.897c0.796,1.669,1.248,3.595,0.748,5.375c-0.514,1.831-2.07,3.331-3.92,3.777
						s-3.918-0.18-5.21-1.576c1.112,0.24,2.319,0.199,3.331-0.321c1.012-0.52,1.784-1.577,1.772-2.715
						c-0.017-1.532-1.692-2.835-3.162-2.404c-1.471,0.431-2.153,2.528-1.164,3.698c-0.578-0.289-1.157-0.577-1.735-0.866
						c-0.084,0.388-0.167,0.775-0.251,1.163c-0.67-0.472-1.341-0.945-2.011-1.417c-0.048,0.334-0.095,0.667-0.142,1.001
						c-0.924-0.363-7.387,0.037-9.596,0.245c-1.106,0.104-2.201,0.317-3.264,0.639c-1.201,0.363-1.549,0.475-1.763,1.736
						C134.535,103.838,133.767,106.77,136.852,108.802z"/>
					<g>
						<path style="fill:none;stroke:#BFBFBF;stroke-linecap:round;stroke-linejoin:round;stroke-miterlimit:10;" d="M137.619,90.899
							c-0.809,0.644-0.686,2.118,0.219,2.619"/>
						<path style="fill:none;stroke:#BFBFBF;stroke-linecap:round;stroke-linejoin:round;stroke-miterlimit:10;" d="M139.649,91.341
							c-0.27,0.359-0.284,0.889-0.033,1.262"/>
						<path style="fill:none;stroke:#BFBFBF;stroke-linecap:round;stroke-linejoin:round;stroke-miterlimit:10;" d="M141.744,91.326
							c-0.118,0.416-0.236,0.832-0.353,1.248"/>
						<path style="fill:none;stroke:#BFBFBF;stroke-linecap:round;stroke-linejoin:round;stroke-miterlimit:10;" d="M146.98,90.308
							c-0.807,0.596-1.182,1.717-0.896,2.678"/>
						<path style="fill:none;stroke:#BFBFBF;stroke-linecap:round;stroke-linejoin:round;stroke-miterlimit:10;" d="M148.383,93.186
							c-0.177-1.274,0.79-2.6,2.058-2.819"/>
						<path style="fill:none;stroke:#BFBFBF;stroke-linecap:round;stroke-linejoin:round;stroke-miterlimit:10;" d="M150.295,93.397
							c0.838-1.817,2.793-3.06,4.794-3.048"/>
						<path style="fill:none;stroke:#BFBFBF;stroke-linecap:round;stroke-linejoin:round;stroke-miterlimit:10;" d="M151.942,94.282
							c0.679-1.193,1.946-2.031,3.309-2.192c1.363-0.16,2.79,0.361,3.727,1.364"/>
						<path style="fill:none;stroke:#BFBFBF;stroke-linecap:round;stroke-linejoin:round;stroke-miterlimit:10;" d="M132.139,92.808
							c-0.585,0.781-0.195,2.084,0.723,2.415"/>
						<path style="fill:none;stroke:#BFBFBF;stroke-linecap:round;stroke-linejoin:round;stroke-miterlimit:10;" d="M135.13,89.811
							c-1.232,1.887-0.68,4.712,1.173,5.995"/>
						<path style="fill:none;stroke:#BFBFBF;stroke-linecap:round;stroke-linejoin:round;stroke-miterlimit:10;" d="M129.585,94.502
							c-0.276,0.663,0.315,1.515,1.032,1.489"/>
						<path style="fill:none;stroke:#BFBFBF;stroke-linecap:round;stroke-linejoin:round;stroke-miterlimit:10;" d="M127.301,95.915
							c-0.131,0.434,0.142,0.947,0.575,1.081"/>
						<path style="fill:none;stroke:#BFBFBF;stroke-linecap:round;stroke-linejoin:round;stroke-miterlimit:10;" d="M125.285,97.344
							c-0.11,0.244,0.071,0.57,0.337,0.604"/>
					</g>
				</g>
				<path style="fill:none;stroke:#263238;stroke-linecap:round;stroke-linejoin:round;stroke-miterlimit:10;" d="M166.88,171.59
					c0.49,17.188-1.573,35.173-22.009,44.677"/>
				<path style="fill:none;stroke:#263238;stroke-linecap:round;stroke-linejoin:round;stroke-miterlimit:10;" d="M136.508,224.111
					c8.872,2.422,18.223,3.098,27.348,1.939"/>
				<path style="fill:none;stroke:#263238;stroke-linecap:round;stroke-linejoin:round;stroke-miterlimit:10;" d="M129.46,221.776
					c1.169,0.458,2.351,0.885,3.544,1.278"/>
				<g>
					<path style="fill:none;stroke:#263238;stroke-linecap:round;stroke-linejoin:round;stroke-miterlimit:10;" d="M237.301,198.801
						c0.072-0.839-0.287-1.703-0.931-2.246c-0.644-0.542-1.557-0.748-2.372-0.534c0.018,0.098-0.221,0.124-0.204,0.222
						c0.772,0.597,1.385,1.396,1.761,2.296C236.141,198.557,236.717,198.785,237.301,198.801z"/>
					<g>
						<path style="fill:#FFFFFF;stroke:#263238;stroke-linecap:round;stroke-linejoin:round;stroke-miterlimit:10;" d="
							M236.238,200.57c-0.14-0.79-2.102-4.698-2.747-5.192c-3.669-2.814-2.072-3.727-9.176-4.996
							c-0.05,0.08-13.741,3.546-21.226,6.988c0,0-49.189-5.82-49.189-6.29l-7.6-9.98l-21.39,3.33c0,0,11.41,18.53,19.96,23.28
							c0,0,41.04-0.99,54.3-1.07c7.23-0.04,11.29,3.676,18.4-4.274c0,0,3.875,3.832,6.189,2.734
							c1.517-0.417-3.417-4.582-5.107-5.942c0.54,0.31,8.137,5.562,12.367,5.712c0.93,0.03,1.31-1.17,0.53-1.68
							c0,0-10.52-5.901-10.045-6.645c0,0,5.836,2.099,6.77,3.382c3.889,5.347,6.516,3.474,6.885,3.153c0.76-0.66-0.3-1.26-0.3-1.88
							C234.86,201.2,236.418,201.65,236.238,200.57z"/>
					</g>
					<path style="fill:none;stroke:#263238;stroke-linecap:round;stroke-linejoin:round;stroke-miterlimit:10;" d="M225.188,193.929
						c2.079,0.823,5.005,2.122,6.394,3.874c2.695,3.397,3.278,3.397,3.278,3.397"/>
				</g>
				<path style="fill:none;stroke:#263238;stroke-miterlimit:10;" d="M116.238,149.198c0,0-6.614,6.037-4.752,21.861
					c0.951,8.079,10.693,21.505,10.693,21.505l26.376-8.376c0,0-6.238-14.079-12.832-23.584"/>
				<path style="fill:none;stroke:#263238;stroke-linecap:round;stroke-linejoin:round;stroke-miterlimit:10;" d="M140.005,160.305
					c1.706,3.938,2.688,8.188,2.882,12.476"/>
				<path style="fill:none;stroke:#263238;stroke-linecap:round;stroke-linejoin:round;" d="M154.863,109.921
					c0.042,0.059-2.559,4.048-1.759,5.101c3.173,4.176,3.613,9.12,2.222,9.344c-1.842,0.297-3.208-1.188-3.98-1.723"/>
				<path style="fill:#FFFFFF;stroke:#263238;stroke-linecap:round;stroke-linejoin:round;stroke-miterlimit:10;" d="
					M114.337,186.861l5.228,6.535l28.99-9.208l-3.564-7.307C144.99,176.881,113.802,186.861,114.337,186.861z"/>
				<path style="fill:none;stroke:#263238;stroke-linecap:round;stroke-linejoin:round;stroke-miterlimit:10;" d="M149.089,145.158
					c-0.043-0.173,3.564,19.069,3.564,19.069l-2.37,0.549"/>
			</g>
		</g>
		<g>
			<polygon style="fill:#FFFFFF;stroke:#263238;stroke-linecap:round;stroke-linejoin:round;stroke-miterlimit:10;" points="
				171.002,170.634 174.812,169.218 175.049,175.158 170.929,176.693 			"/>
		</g>
		<path style="fill:#FFFFFF;stroke:#263238;stroke-linecap:round;stroke-linejoin:round;stroke-miterlimit:10;" d="M168.903,160.305
			c0.832,4.397,1.63,9.095,2.107,16.22"/>
		<path style="fill:#FFFFFF;stroke:#263238;stroke-linecap:round;stroke-linejoin:round;stroke-miterlimit:10;" d="M167.683,153.772
			c0.216,1.256,0.441,2.457,0.667,3.645"/>
	</g>
</g>
</svg>
